<svg xmlns="http://www.w3.org/2000/svg" viewBox="0 0 448.127 448.127">
  <path d="M177.954,144.621c-1.18,0-2.34-0.48-3.18-1.32c-0.84-0.84-1.32-2-1.32-3.18c0-1.19,0.48-2.35,1.32-3.18
 c0.84-0.84,2-1.32,3.18-1.32c1.19,0,2.35,0.48,3.18,1.32c0.84,0.83,1.32,1.99,1.32,3.18c0,1.18-0.48,2.34-1.32,3.18
 C180.304,144.141,179.144,144.621,177.954,144.621z"/>
  <path d="M238.523,144.621c-1.18,0-2.34-0.48-3.18-1.32c-0.84-0.84-1.32-2-1.32-3.18c0-1.19,0.48-2.35,1.32-3.18
 c0.84-0.84,2-1.32,3.18-1.32c1.19,0,2.35,0.48,3.18,1.32c0.84,0.83,1.32,1.99,1.32,3.18c0,1.18-0.48,2.34-1.32,3.18
 C240.874,144.141,239.714,144.621,238.523,144.621z"/>
  <path d="M212.518,284.291h-8.625c-4.503,0-8.166,3.664-8.166,8.167v18.996c0,4.503,3.663,8.166,8.166,8.166h8.625
 c4.503,0,8.166-3.663,8.166-8.166v-18.996C220.685,287.955,217.021,284.291,212.518,284.291z M211.685,310.62h-6.958v-17.329
 h6.958V310.62z"/>
  <path d="M363.188,257.958c-18.798-50.935-50.221-64.284-62.934-67.676c1.767-5.952,2.751-12.596,2.751-19.654
 c0-23.092-10.471-41.78-24.775-46.085c2.879-8.886,5.309-26.622-11.856-43.853c-0.371-6.354-2.717-26.521-17.449-41.514
 c5.168-3.746,11.926-7.227,20.468-9.016c2.409,11.247,12.423,19.708,24.379,19.708c13.747,0,24.931-11.186,24.931-24.935
 C318.703,11.185,307.519,0,293.772,0c-8.375,0-15.793,4.154-20.317,10.506c-48.249-2.032-83.329,7.529-104.275,28.448
 c-16.787,16.766-18.913,35.54-19.132,41.798c-17.093,17.208-14.671,34.908-11.797,43.786
 c-14.303,4.305-24.773,22.998-24.773,46.09c0,15.738,4.864,29.432,12.489,37.924c-8.675,6.429-28.627,25.324-37.331,67.564
 c-6.278,1.586-10.945,7.266-10.945,14.031v5.635c0,3.454,1.219,6.626,3.244,9.118c-1.57,5.45-4.025,17.315,1.107,26.005
 c2.258,3.824,5.767,6.535,10.244,8.01c0.291,10.601,7.439,17.188,22.007,22.798l32.804,30.746
 c-1.315,2.032-2.087,4.446-2.087,7.041v4.296c0,1.627,0.313,3.178,0.861,4.614c-3.526,0.905-5.87,2.665-7.333,4.218
 c-4.562,4.844-4.545,11.399-4.491,12.713v10.112c0,6.988,5.685,12.673,12.673,12.673h42.492c6.988,0,12.673-5.685,12.673-12.673
 l0.001-35.954c0-2.887-0.958-5.549-2.556-7.709l8.875-11.154l8.876,11.155c-1.598,2.16-2.556,4.821-2.556,7.708v35.954
 c0,6.988,5.686,12.673,12.674,12.673h42.491c6.989,0,12.674-5.685,12.674-12.673v-10.112c0.053-1.314,0.071-7.869-4.491-12.713
 c-1.463-1.553-3.807-3.313-7.334-4.218c0.548-1.436,0.861-2.987,0.861-4.614V399.5c0-2.593-0.771-5.005-2.084-7.035l7.759-7.254
 c33.828-0.452,61.444-13.626,77.893-37.23C372.188,323.272,375.183,290.46,363.188,257.958z M293.772,9
 c8.785,0,15.931,7.148,15.931,15.934c0,8.786-7.146,15.935-15.931,15.935c-8.786,0-15.935-7.148-15.935-15.935
 C277.837,16.148,284.986,9,293.772,9z M175.704,45.159c18.615-18.452,50.144-27.114,93.768-25.79
 c-0.126,0.554-0.24,1.112-0.329,1.68c-14.478,2.681-24.708,9.647-30.886,15.249c-5.45,4.942-11.523,12.62-11.523,15.735
 c0,2.485,2.015,4.5,4.5,4.5c1.952,0,3.613-1.243,4.237-2.98c0.356-0.641,2.465-4.231,6.619-8.481
 c8.633,8.589,12.415,19.581,14.067,27.461c-20.605-13.147-45.834-12.976-47.917-12.938c-2.05-0.039-27.342-0.221-47.977,12.977
 C161.976,65.175,166.046,54.731,175.704,45.159z M156.486,87.039c18.843-18.91,51.246-18.452,51.651-18.444
 c0.032,0,0.062-0.008,0.094-0.008c0.04,0,0.077,0.009,0.117,0.008c0.32-0.007,32.714-0.557,51.645,18.444
 c13.131,13.179,12.21,26.208,10.214,33.299c-14.302-12.273-30.151-16.173-61.967-16.173c-31.799,0-47.646,3.894-61.941,16.151
 C144.334,113.205,143.434,100.139,156.486,87.039z M228.509,154.307c-0.206-0.008-0.412-0.018-0.616-0.022
 c-2.657-8.323-10.46-14.37-19.652-14.37c-9.197,0-17.002,6.051-19.656,14.378c-0.208,0.004-0.414,0.004-0.623,0.012
 c-10.592-0.688-35.996-4.433-38.695-24.511c2.609-2.505,5.209-4.683,7.934-6.532c1.559,5.538,6.643,9.614,12.671,9.614h18.901
 c7.264,0,13.174-5.91,13.174-13.174c0-2.346-0.628-4.542-1.708-6.449c2.535-0.059,5.19-0.089,8.002-0.089
 c2.812,0,5.468,0.03,8.004,0.089c-1.081,1.908-1.71,4.104-1.71,6.449c0,7.264,5.91,13.174,13.173,13.174h18.901
 c6.029,0,11.113-4.076,12.672-9.614c2.725,1.85,5.324,4.027,7.933,6.532C264.512,149.892,239.079,153.624,228.509,154.307z
 M242.333,167.428c10.614,5.6,16.098,14.421,13.911,18.566c-2.188,4.147-12.566,4.602-23.179-0.999
 c-4.596-2.425-8.549-5.653-11.16-9.03c3.591-3.194,6.065-7.622,6.75-12.613c0.088-0.004,0.177-0.012,0.265-0.017
 C233.102,163.641,237.865,165.071,242.333,167.428z M202.516,180.359c1.818,0.527,3.738,0.813,5.725,0.813
 c1.987,0,3.906-0.286,5.725-0.813c1.839,2.605,4.219,5.092,6.985,7.354c-0.073,0.064-4.882,5.606-12.71,5.606
 c-7.828,0-12.637-5.541-12.71-5.605C198.297,185.451,200.677,182.964,202.516,180.359z M196.611,160.544
 c0-6.412,5.217-11.628,11.63-11.628c6.412,0,11.629,5.216,11.629,11.628c0,6.413-5.217,11.629-11.629,11.629
 C201.828,172.173,196.611,166.956,196.611,160.544z M194.575,175.966c-2.611,3.377-6.563,6.605-11.158,9.029
 c-10.614,5.599-20.992,5.145-23.179,0.999c-0.995-1.886-0.396-4.794,1.645-7.979c2.533-3.952,7.004-7.811,12.267-10.588
 c4.57-2.412,9.429-3.819,13.677-4.071C188.511,168.347,190.985,172.773,194.575,175.966z M165.698,119.703
 c0-0.371,0.051-0.736,0.146-1.088c3.124-1.283,6.514-2.297,10.31-3.086h12.618c2.302,0,4.174,1.873,4.174,4.174
 c0,2.301-1.873,4.174-4.174,4.174h-18.901C167.57,123.877,165.698,122.004,165.698,119.703z M223.535,119.703
 c0-2.301,1.872-4.174,4.173-4.174h12.618c3.796,0.789,7.187,1.803,10.311,3.086c0.095,0.353,0.146,0.718,0.146,1.088
 c0,2.301-1.873,4.174-4.174,4.174h-18.901C225.407,123.877,223.535,122.004,223.535,119.703z M122.478,170.628
 c0-18.367,8.028-34.185,18.244-37.428c2.863,14.306,14.426,22.734,28.07,26.921c-6.169,3.467-11.291,8.053-14.487,13.039
 c-3.896,6.079-4.615,12.128-2.027,17.034c2.762,5.234,8.808,7.927,16.194,7.927c5.862,0,12.568-1.697,19.145-5.166
 c0.246-0.129,0.479-0.272,0.721-0.405c0.216,0.625,9.326,9.769,19.903,9.769c10.578,0,19.686-9.145,19.903-9.77
 c0.242,0.133,0.476,0.276,0.722,0.406c6.577,3.47,13.282,5.167,19.145,5.167c7.385,0,13.433-2.694,16.194-7.928
 c4.819-9.137-2.404-22.161-16.492-30.08c13.634-4.19,25.186-12.616,28.047-26.914c10.217,3.243,18.245,19.061,18.245,37.428
 c0,20.624-10.118,38.049-22.095,38.049c-2.485,0-4.5,2.015-4.5,4.5c0,23.731-26.543,43.038-59.168,43.038
 s-59.168-19.307-59.168-43.038c0-2.485-2.015-4.5-4.5-4.5h-0.001C132.596,208.677,122.478,191.253,122.478,170.628z
 M133.172,214.507c2.254,1.306,4.639,2.239,7.128,2.735c2.729,26.799,32.146,47.973,67.94,47.973
 c29.307,0,54.351-14.193,63.964-34.046c3.265,1.446,8.038,3.007,13.938,3.366c-0.04,0.376-0.068,0.743-0.08,1.093
 c-3.81,3.919-6.158,9.232-6.158,15.081c0,7.344,3.701,13.847,9.354,17.798c-0.772,0.927-2.046,2.231-4.138,3.933
 c-1.757,1.43-3.215,2.993-4.427,4.615c-7.62,1.82-24.31,5.113-46.537,5.493c-1.321-6.637-7.186-11.656-14.205-11.656h-23.494
 c-7.018,0-12.882,5.017-14.204,11.652c-33.611-0.595-55.827-8.155-64.267-11.604c7.456-17.209,14.329-25.348,14.456-25.496
 c1.628-1.871,1.435-4.708-0.434-6.341c-1.871-1.635-4.713-1.444-6.35,0.427c-0.644,0.737-10.297,12.057-19.368,36.131h-8.35
 C107.15,234.081,128.068,217.904,133.172,214.507z M302.181,228.916c3.91-1.024,10.158-1.373,20.126,0.374
 c4.314,0.756,5.922,6.361,5.922,9.716v19.013c0,3.026-2.461,5.487-5.487,5.487h-2.914c2.651-3.597,4.22-8.018,4.22-12.797
 C324.048,238.757,314.257,229.024,302.181,228.916z M182.887,323.551c2.047,5.519,7.35,9.469,13.572,9.469h23.494
 c6.226,0,11.532-3.956,13.576-9.48c43.073-0.52,66.738-10.218,76.725-15.702c0.646,2.872,1.232,5.804,1.79,8.763
 c-7.925,5.29-39.198,22.921-103.839,22.921c-64.669,0-95.941-17.647-103.849-22.928c0.559-2.952,1.148-5.815,1.77-8.572
 C115.929,313.61,138.942,323.058,182.887,323.551z M108.386,298.85c1.95-7.29,4.073-13.805,6.226-19.542
 c9.266,3.828,32.283,11.608,67.36,12.233v22.991C135.928,313.853,114.726,302.939,108.386,298.85z M190.972,318.532v-33.153
 c0-3.026,2.461-5.487,5.487-5.487h23.494c3.025,0,5.486,2.461,5.486,5.487v33.153c0,3.026-2.461,5.487-5.486,5.487h-23.494
 C193.434,324.02,190.972,321.558,190.972,318.532z M274.894,297.255c0.116,1.347,0.831,2.57,1.948,3.332
 c0.949,0.647,5.742,3.48,17.819,4.335c-12.013,4.416-31.472,9.161-60.222,9.616v-23.016c14.313-0.262,28.827-1.742,41.459-4.226
 C274.537,292.637,274.865,296.924,274.894,297.255z M301.977,296.168c-9.737,0-15.342-1.307-18.07-2.219
 c0.267-3.584,1.521-10.156,6.894-14.528c3.451-2.808,5.633-5.235,6.943-7.322c1.371,0.264,2.786,0.407,4.234,0.407
 c1.447,0,2.858-0.148,4.228-0.414c1.307,2.088,3.491,4.517,6.947,7.329c5.376,4.374,6.629,10.952,6.895,14.528
 C317.32,294.862,311.714,296.168,301.977,296.168z M315.048,250.709c0,7.056-5.863,12.797-13.07,12.797
 c-7.208,0-13.073-5.741-13.073-12.797c0-7.057,5.864-12.798,13.073-12.798C309.185,237.911,315.048,243.652,315.048,250.709z
 M93.147,329.534c-1.424-0.782-2.542-1.833-3.348-3.192c-2.638-4.45-1.946-11.449-0.837-16.445
 c1.036,0.236,2.109,0.372,3.216,0.372h4.234C95.173,316.272,94.069,322.691,93.147,329.534z M92.177,301.269
 c-3.025,0-5.487-2.461-5.487-5.486v-5.635c0-3.025,2.461-5.487,5.487-5.487h10.962c-0.022,0.067-3.616,12.15-4.705,16.608H92.177z
 M192.885,435.454c0,2.025-1.648,3.673-3.673,3.673H146.72c-2.025,0-3.673-1.648-3.673-3.673v-10.219
 c0-0.065-0.003-0.169-0.006-0.233c-0.046-1.082,0.237-4.311,2.082-6.237c1.267-1.322,3.167-1.965,5.81-1.965h37.95
 c1.397,0,2.741-0.228,4.003-0.637L192.885,435.454z M192.886,403.797c-0.001,2.207-1.796,4.003-4.003,4.003h-30.87
 c-2.208,0-4.003-1.796-4.003-4.003V399.5c0-2.207,1.796-4.003,4.003-4.003h30.87c2.208,0,4.003,1.796,4.003,4.003V403.797z
 M191.775,386.832c-0.932-0.213-1.897-0.335-2.892-0.335h-30.87c-1.24,0-2.436,0.185-3.572,0.511l-20.496-19.209
 c3.111,0.814,6.394,1.634,9.867,2.467c25.081,6.02,44.229,7.483,54.986,7.741L191.775,386.832z M207.882,368.918
 c-52.351,0-109.178-17.881-106.476-32.97c0.593-3.311,0.831-6.571,1.308-9.714c12.55,7.503,44.95,22.287,105.491,22.287
 c60.505,0,92.911-14.769,105.477-22.276c0.486,3.202,0.741,6.458,1.322,9.703C317.57,350.268,260.233,368.918,207.882,368.918z
 M271.289,418.765c1.845,1.926,2.129,5.155,2.084,6.201c-0.005,0.09-0.008,10.489-0.008,10.489c0,2.025-1.648,3.673-3.674,3.673
 H227.2c-2.026,0-3.674-1.648-3.674-3.673v-19.292c1.262,0.41,2.606,0.637,4.003,0.637h37.95
 C268.122,416.8,270.022,417.442,271.289,418.765z M223.525,403.796V399.5c0-2.207,1.796-4.003,4.003-4.003h30.869
 c2.208,0,4.004,1.796,4.004,4.003v4.296c0,2.208-1.796,4.003-4.004,4.003h-30.869C225.321,407.8,223.525,406.004,223.525,403.796z
 M261.975,387.009c-1.138-0.326-2.336-0.512-3.577-0.512h-30.869c-0.995,0-1.96,0.123-2.892,0.335l-7.043-8.851
 c0.15,0.002,0.311,0.004,0.459,0.006c2.302,0.031,4.369,0.058,6.327,0.058c11.465,0,19.174-0.949,48.199-7.775
 c3.479-0.818,6.779-1.626,9.904-2.435L261.975,387.009z M347.585,342.835c-13.051,18.728-34.176,30.132-60.255,32.789
 l14.853-13.887c16.043-6.229,23.275-13.86,21.76-26.833c-1.262-10.812-3.077-21.294-5.401-31.226
 c5.434-1.16,7.916-2.645,8.57-3.091c1.117-0.761,1.832-1.984,1.948-3.331c0.054-0.628,1.189-15.451-10.15-24.75h3.832
 c7.988,0,14.487-6.499,14.487-14.487v-19.013c0-7.82-4.183-16.971-13.368-18.581c-16.163-2.833-27.403-1.182-33.407,4.907
 c-0.077,0.078-0.142,0.158-0.216,0.237c-6.746,0.319-12.019-1.515-14.983-2.908c0.431-1.777,0.741-3.584,0.927-5.419
 c8.595-1.716,15.976-8.55,20.807-18.479c3.885,0.97,10.952,3.318,19.104,8.765c11.438,7.643,27.429,23.136,38.652,53.546
 C365.706,290.775,363.096,320.576,347.585,342.835z"/>
</svg>