<svg  viewBox="0 0 64 64" xmlns="http://www.w3.org/2000/svg">
  <circle cx="32" cy="35" r="23" style="fill:#edebdc"/>
  <path d="M40.052,41,53.514,59.992a2.562,2.562,0,0,0,3.571.609l1.006-.714a2.562,2.562,0,0,0,.609-3.571L34.178,21.721a2.562,2.562,0,0,0-3.571-.609l-1.006.714a2.562,2.562,0,0,0-.609,3.571l7.334,10.347" style="fill:#fc8c29;stroke:#4c241d;stroke-linecap:round;stroke-linejoin:round;stroke-width:2px"/>
  <path d="M41.452,17.323,23.207,29a2.048,2.048,0,0,1-2.826-.621L17.2,23.4a2.044,2.044,0,0,1,.621-2.825L28,14Z" style="fill:#ffce56;stroke:#4c241d;stroke-linecap:round;stroke-linejoin:round;stroke-width:2px"/>
  <line x1="36.966" y1="16.274" x2="31.16" y2="19.988" style="fill:#ffce56;stroke:#4c241d;stroke-linecap:round;stroke-linejoin:round;stroke-width:2px"/>
  <line x1="31.966" y1="15.274" x2="28.357" y2="17.583" style="fill:#ffce56;stroke:#4c241d;stroke-linecap:round;stroke-linejoin:round;stroke-width:2px"/>
  <circle cx="55.984" cy="37.603" r="1.069" style="fill:#4c241d"/>
  <line x1="37.586" y1="53.586" x2="40.414" y2="56.414" style="fill:none;stroke:#4c241d;stroke-linecap:round;stroke-linejoin:round;stroke-width:2px"/>
  <line x1="40.414" y1="53.586" x2="37.586" y2="56.414" style="fill:none;stroke:#4c241d;stroke-linecap:round;stroke-linejoin:round;stroke-width:2px"/>
  <circle cx="7.147" cy="24.586" r="2.085" style="fill:none;stroke:#4c241d;stroke-linecap:round;stroke-linejoin:round;stroke-width:2px"/>
  <path d="M40.092,5.843a19,19,0,1,1-22.38,30.506l-.208-.128-.248.4-1.923,3.143-3.049,4.983L10.718,47.31l5.118,3.132,4.175-6.824A22,22,0,1,0,40.956,4.99Z" style="fill:#ffce56;stroke:#4c241d;stroke-linecap:round;stroke-linejoin:round;stroke-width:2px"/>
  <rect x="7.448" y="42.515" width="8" height="18.502" rx="2.561" ry="2.561" transform="translate(28.704 1.636) rotate(31.465)" style="fill:#fc8c29;stroke:#4c241d;stroke-linecap:round;stroke-linejoin:round;stroke-width:2px"/>
  <line x1="8.846" y1="54.408" x2="6.392" y2="52.906" style="fill:#fc8c29;stroke:#4c241d;stroke-linecap:round;stroke-linejoin:round;stroke-width:2px"/>
  <line x1="10.846" y1="51.408" x2="8.392" y2="49.906" style="fill:#fc8c29;stroke:#4c241d;stroke-linecap:round;stroke-linejoin:round;stroke-width:2px"/>
  <polygon points="20.5 1.5 22.197 4.165 25.255 4.955 23.245 7.392 23.439 10.545 20.5 9.387 17.561 10.545 17.755 7.392 15.745 4.955 18.803 4.165 20.5 1.5" style="fill:#e66353;stroke:#4c241d;stroke-linecap:round;stroke-linejoin:round;stroke-width:2px"/>
</svg>